<svg xmlns="http://www.w3.org/2000/svg" viewBox="0 0 370.49 78.11" preserveAspectRatio="xMinYMin meet"><title>Zero to 100</title><path d="M326.39,47.11c0,11.31-8.42,18.65-20.81,18.65s-20.81-7.34-20.81-18.65V32c0-11.3,8.43-18.65,20.81-18.65S326.39,20.69,326.39,32ZM310.84,31.34c0-3.89-2.38-5.33-5.26-5.33s-5.25,1.44-5.25,5.33V47.76c0,3.89,2.37,5.33,5.25,5.33s5.26-1.44,5.26-5.33Z" transform="translate(-1.81 -1.68)" style="fill:#e83a95"/><path d="M372.29,47.11c0,11.31-8.42,18.65-20.81,18.65s-20.81-7.34-20.81-18.65V32c0-11.3,8.43-18.65,20.81-18.65S372.29,20.69,372.29,32ZM356.74,31.34c0-3.89-2.38-5.33-5.26-5.33s-5.25,1.44-5.25,5.33V47.76c0,3.89,2.37,5.33,5.25,5.33s5.26-1.44,5.26-5.33Z" transform="translate(-1.81 -1.68)" style="fill:#e83a95"/><polygon points="248.21 28.23 261.73 28.23 261.73 63.08 277.28 63.08 277.28 12.67 261.49 12.67 248.21 28.23" style="fill:#e83a95"/><path d="M251.24,49.14a2.81,2.81,0,1,1-5.62,0v-.92a2.81,2.81,0,1,1,5.62,0ZM250,49.2v-1c0-1-.5-1.71-1.55-1.71s-1.55.71-1.55,1.71v1c0,1,.5,1.71,1.55,1.71S250,50.2,250,49.2Z" transform="translate(-1.81 -1.68)" style="fill:#231f20"/><path d="M158.61,27H151v12.1h7.63c3.74,0,5.83-2.52,5.83-6C164.44,29.34,162.43,27,158.61,27Z" transform="translate(-1.81 -1.68)" style="fill:#231f20"/><path d="M207.94,26.46c-5.33,0-8.28,3.17-8.28,9v8.21c0,5.83,3,9,8.28,9s8.28-3.17,8.28-9V35.46C216.22,29.63,213.27,26.46,207.94,26.46Z" transform="translate(-1.81 -1.68)" style="fill:#231f20"/><path d="M207.94,65.78c-15.77,0-24.05-9.37-24.05-23.05V36.4c0-13.68,8.28-23,24.05-23S232,22.72,232,36.4v2.25L263.51,1.74l-195-.06L57.63,14.36H84.84V27.47L64.18,51.66H85.35V64.77H45.6V51.66L66.26,27.47H46.46v0L1.81,79.72l195,.07,12-14.05C208.54,65.75,208.25,65.78,207.94,65.78Zm-78.75-1H91V14.36h38.09v13H106.8V32.8H127v13H106.8v6.05h22.39Zm34,0-7.71-13.25H151V64.77H135.21V14.36h25.2c12.82,0,19.8,7.64,19.8,18.65,0,7.2-3.24,12.75-8.64,15.84l10,15.92Z" transform="translate(-1.81 -1.68)" style="fill:#231f20"/><polygon points="234.97 43.85 234.08 44.9 236.86 44.9 236.86 50.15 238.12 50.15 238.12 44.9 240.01 44.9 240.9 43.85 234.97 43.85" style="fill:#231f20"/></svg>